<?xml version="1.0" encoding="UTF-8"?>
<svg id="uuid-1ba915f5-ba5f-4ed2-93e6-bdd2c98bdba3" xmlns="http://www.w3.org/2000/svg" version="1.1" viewBox="0 0 40 40">
  <!-- Generator: Adobe Illustrator 29.8.1, SVG Export Plug-In . SVG Version: 2.1.1 Build 2)  -->
  <defs>
    <style>
      .st0 {
        fill: #067eb9;
        fill-rule: evenodd;
      }
    </style>
  </defs>
  <g id="uuid-86616b7a-f65a-4cc9-9672-780895c4f510">
    <path class="st0" d="M34.1,5.8C30.4,2.1,25.4,0,20.1,0,9.2,0,.3,8.9.3,19.8c0,3.5.9,6.9,2.6,9.9L0,40l10.5-2.8c2.9,1.6,6.2,2.4,9.5,2.4h0s0,0,0,0c10.9,0,19.8-8.9,19.8-19.8,0-5.3-2.1-10.3-5.8-14h0ZM20.1,36.3h0c-3,0-5.9-.8-8.4-2.3l-.6-.4-6.2,1.6,1.7-6.1-.4-.6c-1.6-2.6-2.5-5.7-2.5-8.8,0-9.1,7.4-16.5,16.5-16.5,4.4,0,8.5,1.7,11.6,4.8,3.1,3.1,4.8,7.3,4.8,11.7,0,9.1-7.4,16.5-16.5,16.5h0ZM29.1,24c-.5-.2-2.9-1.4-3.4-1.6-.5-.2-.8-.2-1.1.2-.3.5-1.3,1.6-1.6,1.9-.3.3-.6.4-1.1.1-.5-.2-2.1-.8-4-2.5-1.5-1.3-2.5-2.9-2.8-3.4-.3-.5,0-.8.2-1,.2-.2.5-.6.7-.9.2-.3.3-.5.5-.8.2-.3,0-.6,0-.9s-1.1-2.7-1.5-3.7c-.4-1-.8-.8-1.1-.9-.3,0-.6,0-.9,0s-.9.1-1.3.6c-.5.5-1.7,1.7-1.7,4.1s1.8,4.8,2,5.1c.2.3,3.5,5.3,8.5,7.5,1.2.5,2.1.8,2.8,1,1.2.4,2.3.3,3.1.2,1-.1,2.9-1.2,3.3-2.4.4-1.2.4-2.1.3-2.4-.1-.2-.5-.3-.9-.6h0Z"/>
  </g>
</svg>