<?xml version="1.0" encoding="UTF-8"?>
<svg id="uuid-afc147ed-cf91-40a2-86e2-fda8186ccaa8" data-name="Layer 1" xmlns="http://www.w3.org/2000/svg" width="40" height="26.9131" viewBox="0 0 40 26.9131">
  <defs>
    <style>
      .uuid-41f8d6b6-823d-49f1-a5f0-a43d1ada2383 {
        fill: #067eb9;
      }
    </style>
  </defs>
  <path class="uuid-41f8d6b6-823d-49f1-a5f0-a43d1ada2383" d="M36.1122,0H3.8878C1.7434,0,0,1.7434,0,3.8878v19.1375c0,2.1444,1.7434,3.8878,3.8878,3.8878h32.2244c2.1444,0,3.8878-1.7434,3.8878-3.8878V3.8878C40,1.7434,38.2566,0,36.1122,0ZM29.2267,12.7816l8.1398-6.9409v15.0807l-8.1398-8.1398ZM36.1122,2.6336c.2483,0,.4416.1391.6366.2641l-16.0297,13.6687c-.4156.3641-1.0299.3568-1.4382,0L3.2513,2.8977c.1949-.1251.3883-.2641.6366-.2641h32.2244ZM2.6336,20.9207V5.8407l8.1379,6.9395L2.6336,20.9207ZM3.8878,24.2795c-.2455,0-.4359-.1386-.6294-.2611l9.5221-9.5251,4.7864,4.0814c.7062.5995,1.5706.9011,2.4349.9011.8607,0,1.7251-.3016,2.4313-.9011l4.7846-4.0798,9.5237,9.5237c-.1936.1223-.3839.2609-.6292.2609H3.8878Z"/>
</svg>