<?xml version="1.0" encoding="UTF-8"?>
<svg id="uuid-beff6b01-d0e2-4f0d-b8da-d0ec238e4b5d" xmlns="http://www.w3.org/2000/svg" version="1.1" viewBox="0 0 40 40">
  <!-- Generator: Adobe Illustrator 29.8.1, SVG Export Plug-In . SVG Version: 2.1.1 Build 2)  -->
  <defs>
    <style>
      .st0 {
        fill: #067eb9;
      }
    </style>
  </defs>
  <path class="st0" d="M20,0C9,0,0,9,0,20s9,20,20,20,11-2.4,14.8-6.6c0,0,.1-.1.2-.2,3.2-3.7,5-8.4,5-13.2C40,9,31,0,20,0ZM26.1,31.2c-1.3,3.2-3,5.4-4.9,6v-6.6c1.7,0,3.3.2,4.9.5ZM31.8,32.9c-1.6,1.5-3.5,2.7-5.5,3.4.9-1.3,1.7-2.8,2.4-4.5,1.1.3,2.2.7,3.1,1.1ZM21.3,28.1v-6.9h6.8c0,2.6-.5,5.2-1.1,7.5-1.8-.4-3.7-.6-5.7-.6ZM28.1,18.7h-6.8v-6.9c2,0,3.9-.3,5.7-.6.6,2.3,1,4.9,1.1,7.5ZM28.7,8.2c-.7-1.8-1.5-3.3-2.4-4.5,2,.8,3.9,2,5.5,3.4-1,.4-2,.8-3.1,1.1ZM21.3,9.3V2.8c1.9.7,3.6,2.8,4.9,6-1.6.3-3.2.5-4.9.5ZM37.4,21.3c-.3,3.5-1.6,6.9-3.8,9.6-1.3-.6-2.7-1.1-4.2-1.6.7-2.5,1.1-5.2,1.2-8.1h6.8ZM37.4,18.7h-6.8c0-2.9-.5-5.6-1.2-8.1,1.5-.4,2.9-.9,4.2-1.6,2.2,2.8,3.5,6.1,3.8,9.6ZM10.5,29.3c-1.5.4-2.9.9-4.2,1.6-2.2-2.8-3.5-6.1-3.8-9.6h6.8c0,2.9.5,5.6,1.2,8.1ZM2.6,18.7c.3-3.5,1.6-6.9,3.8-9.6,1.3.6,2.7,1.1,4.2,1.6-.7,2.5-1.1,5.2-1.2,8.1H2.6ZM11.9,21.3h6.8v6.9c-2,0-3.9.3-5.7.6-.6-2.3-1-4.9-1.1-7.5ZM11.3,31.8c.7,1.8,1.5,3.3,2.4,4.5-2-.8-3.9-2-5.6-3.4,1-.4,2-.8,3.1-1.1ZM18.7,30.7v6.6c-1.9-.7-3.6-2.8-4.9-6,1.6-.3,3.2-.5,4.9-.5ZM18.7,11.9v6.9h-6.8c0-2.6.5-5.2,1.1-7.5,1.8.4,3.7.6,5.7.6ZM8.2,7.1c1.6-1.5,3.5-2.7,5.5-3.4-.9,1.3-1.7,2.8-2.4,4.5-1.1-.3-2.2-.7-3.1-1.1ZM18.7,2.8v6.6c-1.7,0-3.3-.2-4.9-.5,1.3-3.2,3-5.4,4.9-6Z"/>
</svg>